<svg id="svg3596" xmlns="http://www.w3.org/2000/svg" viewBox="0 0 59.7 72.3"><title>logo</title><path d="M32.71,25.56c3.66.45,6.37,3,6.38,6.88A1.4,1.4,0,0,1,37.75,34a1.35,1.35,0,0,1-1.59-1.26c0-.08-.06-.15-.06-.23a4.21,4.21,0,0,0-3.79-4,1.37,1.37,0,0,1-1.23-1.62A1.46,1.46,0,0,1,32.71,25.56Z" transform="translate(-1.65 -1.85)"/><path d="M31.51,1.85A29.64,29.64,0,0,1,61.32,33c-.26,6.87-3,12.83-6.61,18.53A84.45,84.45,0,0,1,38.9,69c-1.68,1.43-3.5,2.85-5.31,4.28a3,3,0,0,1-4.15.13c-9.59-7.78-18.4-16.07-24-27.22C1.58,38.66.41,30.75,3.13,22.59A29.52,29.52,0,0,1,31.51,1.85ZM55.36,31.53c0-12.05-9.07-22-21.38-23.46-11.92-1.56-23.46,7-25.79,18.79C6.76,34.12,9,40.6,12.59,46.69c4.67,7.65,11,13.87,17.88,19.7a1.21,1.21,0,0,0,1.94,0c2.33-2.2,4.8-4.15,7-6.35A65,65,0,0,0,51.21,45.27C53.67,40.86,55.36,36.45,55.36,31.53Z" transform="translate(-1.65 -1.85)"/><path d="M40.58,46.3A62.7,62.7,0,0,1,34,48.38c-7.26,1.3-13.74-2.46-16.85-9.59-2.46-5.57-.52-13.61,4.41-17.5A15.51,15.51,0,0,1,45.38,40.21a2.09,2.09,0,0,0,.52,3,3.07,3.07,0,0,1-.78,5.31c-1.3.65-2.33,0-3.24-.78A4.31,4.31,0,0,1,40.58,46.3ZM31.51,23.75a9.13,9.13,0,0,0-9.33,9.33,9.33,9.33,0,1,0,18.66,0A9.13,9.13,0,0,0,31.51,23.75Z" transform="translate(-1.65 -1.85)"/></svg>